<svg width="247" height="67" viewBox="0 0 247 67" fill="none" xmlns="http://www.w3.org/2000/svg">
<path d="M14.6348 66.2624C15.2775 58.682 21.4054 55.2361 24.389 54.4606V66.2624H14.6348Z" fill="#DCF4E4"/>
<path d="M42.7498 48.276C39.5826 49.8647 34.6596 51.2076 32.594 51.6804L36.9547 56.2195C41.9121 62.1204 47.5887 64.9952 49.8073 65.695C54.8565 67.1929 62.9276 66.3191 66.332 65.695V56.2195C59.768 58.2168 53.8428 56.4465 51.7007 55.3117C48.5335 53.6322 44.4138 49.9215 42.7498 48.276Z" fill="#DCF4E4"/>
<path fill-rule="evenodd" clip-rule="evenodd" d="M12.8422 66.4052C12.9371 64.2613 14.0375 59.2335 17.6803 56.2737C18.6479 55.4199 21.5394 53.3367 25.3643 51.834L39.7648 47.3375C41.9846 46.6924 47.039 44.7989 49.4979 42.3855C51.7746 40.4503 56.5671 35.3276 57.5234 30.3188C58.2254 27.2072 59.0488 19.675 56.7265 14.4385C55.2277 10.4542 49.7369 2.04159 39.7648 0.265727C35.0026 -0.56908 23.9186 0.0835874 17.6803 9.37271C16.9214 10.5301 15.3353 13.7213 15.0621 17.2275V37.4336C16.6558 36.447 20.7995 34.3942 24.6244 34.0754V20.4149C25.0608 17.4362 27.55 11.3079 34.016 10.6249C36.8429 10.4162 43.123 11.4446 45.6274 17.2275C46.6519 20.1303 47.2325 26.8126 41.3585 30.3188C39.8976 31.1536 36.3838 32.994 34.016 33.677L20.9247 37.4336C17.6993 38.5151 10.5313 41.4635 7.66264 44.6054C5.61357 46.1422 1.28775 50.6273 0.377055 56.2737C0.0924615 58.5125 -0.305969 63.6731 0.377055 66.4052H3.37447C3.37447 66.4115 3.37447 66.4178 3.37447 66.4241H6.41548L6.41548 66.4052H7.22607L9.4316 66.4659C9.43214 66.4461 9.43279 66.4258 9.43355 66.4052H12.8422ZM9.43355 66.4052C9.50355 64.5054 10.4922 59.1526 13.8549 55.1671L13.8805 55.1368L13.9044 55.1052C14.9795 53.6874 19.2412 49.919 26.779 48.0346L26.8532 48.016L26.9253 47.9901C28.7999 47.3152 33.7293 45.632 38.3736 44.3242C39.4532 44.0258 41.198 43.421 43.0327 42.5539C44.8569 41.6918 46.8702 40.5238 48.4035 39.0671C49.0124 38.4887 49.037 37.5263 48.4587 36.9175C47.8803 36.3087 46.9179 36.284 46.309 36.8624C45.1103 38.0012 43.4239 39.0055 41.7333 39.8045C40.0556 40.5974 38.4728 41.142 37.5599 41.3941L37.5526 41.3961C32.8754 42.713 27.9368 44.3962 25.9668 45.1031C17.9285 47.1302 13.0718 51.1951 11.5062 53.2352C7.80681 57.6383 6.60951 63.2992 6.4177 65.8871C6.44053 63.2486 6.6611 59.4229 8.07749 55.7627C9.57053 51.9044 12.3824 48.2421 17.8055 46.344L17.8203 46.3388L17.835 46.3333C21.9461 44.7988 31.7925 41.2774 38.3758 39.4286L38.4299 39.4134L38.4828 39.3943C40.672 38.6009 44.0318 36.989 47.118 34.6887C50.1771 32.4087 53.1661 29.3043 54.2806 25.4684C54.5149 24.662 54.0511 23.8184 53.2447 23.5841C52.4383 23.3498 51.5946 23.8136 51.3604 24.62C50.5168 27.5233 48.146 30.1297 45.3007 32.2505C42.5074 34.3325 39.4478 35.8037 37.4983 36.5164C30.794 38.4033 20.9065 41.9412 16.786 43.4789C10.3797 45.7261 6.99139 50.1429 5.24142 54.6652C3.51674 59.1221 3.37511 63.6907 3.37447 66.4052H6.41548L6.41549 66.3829L7.22607 66.4052H9.43355Z" fill="#DCF4E4"/>
<ellipse cx="35.7319" cy="22.1424" rx="2.47082" ry="2.37579" fill="#DCF4E4"/>
<path d="M80.8738 65.7639V27.8021H97.2596C100.077 27.8021 102.542 28.3149 104.656 29.3406C106.769 30.3662 108.412 31.8429 109.586 33.7707C110.76 35.6984 111.347 38.0093 111.347 40.7032C111.347 43.4218 110.742 45.7141 109.53 47.58C108.332 49.446 106.645 50.8548 104.47 51.8063C102.308 52.7578 99.7805 53.2335 96.8889 53.2335H87.1019V45.226H94.8129C96.0239 45.226 97.0557 45.0777 97.9084 44.7811C98.7734 44.4722 99.4345 43.9841 99.8917 43.3168C100.361 42.6495 100.596 41.7783 100.596 40.7032C100.596 39.6157 100.361 38.7322 99.8917 38.0525C99.4345 37.3605 98.7734 36.8539 97.9084 36.5326C97.0557 36.1989 96.0239 36.0321 94.8129 36.0321H91.1798V65.7639H80.8738ZM103.117 48.34L112.607 65.7639H101.412L92.1437 48.34H103.117ZM120.96 65.7639V27.8021H148.319V36.1062H131.266V42.6309H146.91V50.9351H131.266V57.4598H148.245V65.7639H120.96ZM157.612 36.1062V27.8021H190.606V36.1062H179.188V65.7639H169.03V36.1062H157.612ZM222.17 27.8021H232.476V52.1214C232.476 55.013 231.784 57.5154 230.4 59.6285C229.029 61.7292 227.113 63.3542 224.654 64.5035C222.195 65.6403 219.341 66.2088 216.091 66.2088C212.816 66.2088 209.949 65.6403 207.49 64.5035C205.031 63.3542 203.115 61.7292 201.744 59.6285C200.384 57.5154 199.705 55.013 199.705 52.1214V27.8021H210.011V51.2317C210.011 52.4056 210.27 53.456 210.789 54.3828C211.308 55.2972 212.025 56.014 212.939 56.533C213.866 57.052 214.917 57.3115 216.091 57.3115C217.277 57.3115 218.327 57.052 219.242 56.533C220.156 56.014 220.873 55.2972 221.392 54.3828C221.911 53.456 222.17 52.4056 222.17 51.2317V27.8021Z" fill="#DCF4E4"/>
</svg>
